<?xml version="1.0" encoding="UTF-8" standalone="no"?>
<!-- Created with Inkscape (http://www.inkscape.org/) -->

<svg
   width="32"
   height="51.299999"
   viewBox="0 0 8.4666665 13.573125"
   version="1.1"
   id="svg61807"
   inkscape:version="1.1.2 (b8e25be833, 2022-02-05)"
   sodipodi:docname="map_point.svg"
   xmlns:inkscape="http://www.inkscape.org/namespaces/inkscape"
   xmlns:sodipodi="http://sodipodi.sourceforge.net/DTD/sodipodi-0.dtd"
   xmlns:xlink="http://www.w3.org/1999/xlink"
   xmlns="http://www.w3.org/2000/svg"
   xmlns:svg="http://www.w3.org/2000/svg">
  <sodipodi:namedview
     id="namedview61809"
     pagecolor="#505050"
     bordercolor="#eeeeee"
     borderopacity="1"
     inkscape:pageshadow="0"
     inkscape:pageopacity="0"
     inkscape:pagecheckerboard="0"
     inkscape:document-units="mm"
     showgrid="false"
     inkscape:zoom="3.6233469"
     inkscape:cx="-24.01095"
     inkscape:cy="55.749562"
     inkscape:window-width="1680"
     inkscape:window-height="987"
     inkscape:window-x="-8"
     inkscape:window-y="-8"
     inkscape:window-maximized="1"
     inkscape:current-layer="layer1"
     units="px" />
  <defs
     id="defs61804">
    <linearGradient
       inkscape:collect="always"
       id="linearGradient64054">
      <stop
         style="stop-color:#b343d6;stop-opacity:1;"
         offset="0"
         id="stop64050" />
      <stop
         style="stop-color:#0097ee;stop-opacity:1"
         offset="1"
         id="stop64052" />
    </linearGradient>
    <inkscape:perspective
       sodipodi:type="inkscape:persp3d"
       inkscape:vp_x="0 : -405.46856 : 1"
       inkscape:vp_y="0 : 999.99999 : 0"
       inkscape:vp_z="210 : -405.46856 : 1"
       inkscape:persp3d-origin="105 : -454.96855 : 1"
       id="perspective4881" />
    <linearGradient
       inkscape:collect="always"
       xlink:href="#linearGradient64054"
       id="linearGradient64056"
       x1="2.8031909e-08"
       y1="6.7849855"
       x2="7.2168674"
       y2="2.618325"
       gradientUnits="userSpaceOnUse" />
  </defs>
  <g
     inkscape:label="Слой 1"
     inkscape:groupmode="layer"
     id="layer1">
    <path
       style="fill:url(#linearGradient64056);fill-opacity:1;stroke-width:0.0150896"
       d="M 4.1409058,13.557971 C 3.9545618,13.511497 3.7883351,13.355005 3.6593025,13.104573 3.6229551,13.03403 3.4525674,12.670748 3.2806625,12.297281 3.1087572,11.923814 2.849386,11.360218 2.7042819,11.044846 2.5591779,10.729474 2.3603491,10.29829 2.2624397,10.086658 2.1645303,9.8750271 1.9844734,9.4845839 1.8623132,9.2190077 1.4620149,8.3487575 0.9347088,7.2043959 0.75329968,6.8122196 0.3090707,5.8518723 0.27814367,5.7803743 0.19671983,5.5254947 -0.03939275,4.7863987 -0.06393567,3.946361 0.12836647,3.1859803 0.34256471,2.3390203 0.83767033,1.5511249 1.5068542,0.99229836 2.1505303,0.45477299 2.899321,0.1299256 3.7485767,0.01977336 3.9924456,-0.01185749 4.5476933,-0.00443177 4.8226728,0.03413805 6.023686,0.20259715 7.091716,0.87224078 7.7679143,1.8807729 8.1095607,2.390331 8.3594282,3.048222 8.4429246,3.6580515 8.4760393,3.8999094 8.4863072,4.3264387 8.4652781,4.5865764 8.4310215,5.0103305 8.3163877,5.483974 8.1561356,5.86389 8.1199149,5.9497601 7.9462586,6.332371 7.7702326,6.7141375 7.5942067,7.0959039 7.3530942,7.6187576 7.2344265,7.8760351 7.1157594,8.1333127 6.8983542,8.6052389 6.7513043,8.9247607 6.3772275,9.7375841 6.0831944,10.37583 5.8232636,10.939219 5.7007352,11.204796 5.4394169,11.771787 5.2425563,12.199199 5.0456962,12.626611 4.8549128,13.03403 4.8185928,13.104573 4.642864,13.445894 4.3845268,13.61873 4.1409058,13.557971 Z"
       id="path63700"
       sodipodi:nodetypes="sssssssssssssssssssssss" />
    <g
       id="g61885"
       transform="matrix(0.24103353,0,0,0.24103353,1.1019836,0.94885255)">
      <g
         id="layer2"
         inkscape:label="Слой 2">
        <path
           id="path4947"
           style="fill:#ffffff;stroke:#ffffff;stroke-width:0;stroke-linecap:round;stroke-linejoin:round"
           inkscape:transform-center-y="-2.9272373e-06"
           d="m 9.7610498,6.3107898 c 0.138959,1.143949 -1.736555,1.534683 -2.447182,2.441837 -0.710628,0.907156 -0.640951,2.8216872 -1.784894,2.9606502 -1.143944,0.13896 -1.534677,-1.7365602 -2.44183,-2.4471902 -0.907153,-0.710631 -2.82167799,-0.640952 -2.96063899,-1.784899 -0.138959,-1.143948 1.73655399,-1.534683 2.44718199,-2.441837 0.710628,-0.907156 0.640949,-2.821687 1.784894,-2.96065 1.143944,-0.138959 1.534677,1.736561 2.44183,2.44719 0.907153,0.710631 2.821677,0.640952 2.960639,1.784899 z"
           sodipodi:nodetypes="sssssssss" />
        <path
           id="path5476"
           style="fill:#ffffff;stroke:#ffffff;stroke-width:0;stroke-linecap:round;stroke-linejoin:round"
           d="m 11.73129,1.8551208 c -5.53e-4,0.439982 -0.729483,0.500816 -1.040984,0.811545 -0.3115,0.310725 -0.374149,1.039512 -0.8141312,1.038961 -0.43998,-5.51e-4 -0.500814,-0.729483 -0.811542,-1.040986 -0.310724,-0.3115 -1.039508,-0.374149 -1.038959,-0.814131 5.51e-4,-0.439984 0.729484,-0.500817 1.040984,-0.811546 C 9.3781588,0.72823681 9.4408058,-5.4819e-4 9.8807868,8.1000124e-7 10.320768,5.5181e-4 10.381602,0.72948581 10.692331,1.0409878 c 0.310725,0.311502 1.039508,0.37415 1.038959,0.814133 z"
           sodipodi:nodetypes="sssssssss" />
        <path
           id="path5478"
           style="fill:#ffffff;stroke:#ffffff;stroke-width:0;stroke-linecap:round;stroke-linejoin:round"
           d="m 3.7056168,13.080252 c -5.53e-4,0.439982 -0.729483,0.500816 -1.040984,0.811544 -0.311499,0.310726 -0.374148,1.039512 -0.814131,1.038961 -0.43998,-5.51e-4 -0.500814,-0.729483 -0.811542,-1.040985 C 0.72823581,13.578271 -5.4819e-4,13.515622 8.1000167e-7,13.07564 5.5181e-4,12.635657 0.72948481,12.574824 1.0409848,12.264094 c 0.311501,-0.310727 0.374149,-1.039512 0.814129,-1.038962 0.439981,5.51e-4 0.500815,0.729484 0.811544,1.040986 0.310726,0.311503 1.039508,0.37415 1.038959,0.814134 z"
           sodipodi:nodetypes="sssssssss" />
      </g>
      <g
         inkscape:label="Слой 1"
         id="layer1-6"
         style="opacity:1">
        <path
           style="fill:#ffffff;fill-opacity:1;stroke:#ff0000;stroke-width:0;stroke-linecap:round;stroke-linejoin:round;stroke-miterlimit:4;stroke-dasharray:none;stroke-opacity:1"
           d="m 5.7455558,25.972502 c 0,0 -3.059222,-14.497322 8.9343042,-18.5972052 2.184755,-0.746839 10.655948,-0.517563 10.655948,-0.517563 2.051236,0.02263 1.22353,2.244465 -1.929725,6.2427632 0,0 -11.626634,-1.981586 -12.306922,6.453095 l 9.448745,0.16541 c 2.18133,-0.23711 -1.19914,4.89541 -4.529925,6.17265 -3.19724,1.22602 -10.2724252,0.0809 -10.2724252,0.0809 z"
           id="path893"
           sodipodi:nodetypes="csccccscc" />
      </g>
    </g>
  </g>
</svg>
