<?xml version="1.0" encoding="UTF-8" standalone="no"?>
<!-- Created with Inkscape (http://www.inkscape.org/) -->

<svg
   width="480mm"
   height="330mm"
   viewBox="0 0 480 330.00006"
   version="1.1"
   id="svg16699"
   inkscape:version="1.1.2 (b8e25be833, 2022-02-05)"
   sodipodi:docname="404.svg"
   xmlns:inkscape="http://www.inkscape.org/namespaces/inkscape"
   xmlns:sodipodi="http://sodipodi.sourceforge.net/DTD/sodipodi-0.dtd"
   xmlns="http://www.w3.org/2000/svg"
   xmlns:svg="http://www.w3.org/2000/svg">
  <sodipodi:namedview
     id="namedview16701"
     pagecolor="#505050"
     bordercolor="#eeeeee"
     borderopacity="1"
     inkscape:pageshadow="0"
     inkscape:pageopacity="0"
     inkscape:pagecheckerboard="0"
     inkscape:document-units="mm"
     showgrid="false"
     units="mm"
     inkscape:zoom="0.32026164"
     inkscape:cx="677.57099"
     inkscape:cy="668.20365"
     inkscape:window-width="1680"
     inkscape:window-height="987"
     inkscape:window-x="-8"
     inkscape:window-y="-8"
     inkscape:window-maximized="1"
     inkscape:current-layer="layer2" />
  <defs
     id="defs16696" />
  <g
     inkscape:groupmode="layer"
     id="layer3"
     inkscape:label="Слой 3">
    <rect
       style="opacity:1;fill:#a1fffb;fill-opacity:1;stroke:none;stroke-width:0;stroke-linecap:round;stroke-linejoin:round"
       id="rect28796"
       width="480"
       height="258.95392"
       x="0"
       y="-258.95392"
       transform="scale(1,-1)" />
    <path
       style="fill:#ffffff;fill-opacity:0.746988;stroke:none;stroke-width:0.239686px;stroke-linecap:butt;stroke-linejoin:miter;stroke-opacity:1"
       d="M 480,169.4594 6.1e-5,161.2 v 38.30999 C 1.489931,220.67998 480,258.95391 480,258.95391 Z"
       id="path33618"
       sodipodi:nodetypes="csccc" />
  </g>
  <g
     inkscape:groupmode="layer"
     id="layer2"
     inkscape:label="Слой 2"
     style="opacity:1">
    <path
       style="opacity:1;fill:#da8f3b;fill-opacity:1;stroke:none;stroke-width:0.26983px;stroke-linecap:butt;stroke-linejoin:miter;stroke-opacity:1"
       d="m 0,211.03737 c 0,0 177.86502,-96.11422 196.71165,-90.08784 18.84663,6.0264 71.85276,100.64076 170.79755,103.05132 C 466.45399,226.41141 480,258.95391 480,258.95391 L 266.76917,322.72489 0,328.74872 Z"
       id="path23013"
       sodipodi:nodetypes="csscccc" />
    <path
       style="opacity:1;fill:#a5641b;fill-opacity:1;stroke:none;stroke-width:0.26983px;stroke-linecap:butt;stroke-linejoin:miter;stroke-opacity:1"
       d="m 195.53374,120.94953 c 0,0 -45.93866,77.74047 56.53987,116.91201 102.47853,39.17156 129.57055,24.70821 157.8405,61.46921 C 438.18404,336.09174 480,258.95391 480,258.95391 c 0,0 -10.09153,-35.19492 -140.76075,-42.78738 -67.50542,-3.92237 -123.68097,-95.71921 -143.70551,-95.217 z"
       id="path24784"
       sodipodi:nodetypes="csscsc" />
  </g>
  <g
     inkscape:label="Слой 1"
     inkscape:groupmode="layer"
     id="layer1">
    <path
       style="opacity:1;fill:#ffad3e;fill-opacity:1;stroke:none;stroke-width:0.26983px;stroke-linecap:butt;stroke-linejoin:miter;stroke-opacity:1"
       d="m 0,258.95392 c 0,0 170.20858,-37.36362 205.546,-22.29764 35.33743,15.06598 188.46625,54.23753 210.25767,79.54838 C 432.72018,335.85327 0,328.74872 0,328.74872 Z"
       id="path16807"
       sodipodi:nodetypes="csscc" />
    <path
       style="opacity:1;fill:#ffc77b;fill-opacity:1;stroke:none;stroke-width:0.26983px;stroke-linecap:butt;stroke-linejoin:miter;stroke-opacity:1"
       d="m 480,258.95391 c 0,0 -456.002419,-37.1108 -386.355838,69.79481 H 480 Z"
       id="path21314"
       sodipodi:nodetypes="cccc" />
    <path
       style="fill:#ffffff;fill-opacity:0.506024;stroke:none;stroke-width:0.207191px;stroke-linecap:butt;stroke-linejoin:miter;stroke-opacity:1"
       d="M 6e-5,38.981312 C 6e-5,38.981312 480,19.126603 480,32.809632 v 5.87207 C 478.51013,54.500573 6e-5,105.85436 6e-5,105.85436 Z"
       id="path30592"
       sodipodi:nodetypes="csccc" />
    <text
       xml:space="preserve"
       style="font-size:61.1291px;line-height:1.25;font-family:'Futura PT Bold Italic';-inkscape-font-specification:'Futura PT Bold Italic, ';fill:#2d2d2d;fill-opacity:1;stroke:none;stroke-width:0.424507"
       x="330.51944"
       y="108.84649"
       id="text36204"
       transform="scale(1.0019013,0.99810232)"><tspan
         sodipodi:role="line"
         id="tspan36202"
         style="font-size:61.1291px;fill:#2d2d2d;fill-opacity:1;stroke:none;stroke-width:0.424507"
         x="330.51944"
         y="108.84649">404</tspan></text>
    <text
       xml:space="preserve"
       style="font-size:10.5833px;line-height:1.25;font-family:'Futura PT Bold Italic';-inkscape-font-specification:'Futura PT Bold Italic, ';stroke-width:0.264583"
       x="107.4881"
       y="144.87526"
       id="text43896"><tspan
         sodipodi:role="line"
         style="stroke-width:0.264583"
         x="107.4881"
         y="144.87526"
         id="tspan43898" /></text>
  </g>
</svg>
