<?xml version="1.0" encoding="UTF-8" standalone="no"?>
<svg
   width="40"
   height="40"
   fill="none"
   version="1.1"
   id="svg20"
   sodipodi:docname="vk.svg"
   inkscape:version="1.1.2 (b8e25be833, 2022-02-05)"
   xmlns:inkscape="http://www.inkscape.org/namespaces/inkscape"
   xmlns:sodipodi="http://sodipodi.sourceforge.net/DTD/sodipodi-0.dtd"
   xmlns="http://www.w3.org/2000/svg"
   xmlns:svg="http://www.w3.org/2000/svg">
  <sodipodi:namedview
     id="namedview22"
     pagecolor="#505050"
     bordercolor="#eeeeee"
     borderopacity="1"
     inkscape:pageshadow="0"
     inkscape:pageopacity="0"
     inkscape:pagecheckerboard="0"
     showgrid="false"
     width="40px"
     inkscape:zoom="2.9376127"
     inkscape:cx="-27.232997"
     inkscape:cy="53.104345"
     inkscape:window-width="1680"
     inkscape:window-height="987"
     inkscape:window-x="-8"
     inkscape:window-y="-8"
     inkscape:window-maximized="1"
     inkscape:current-layer="svg20" />
  <g
     clip-path="url(#new_logo_vk_with_text__a)"
     id="g10"
     transform="matrix(1.6667361,0,0,1.6666667,-0.00166669,0)">
    <g
       clip-path="url(#new_logo_vk_with_text__b)"
       id="g8">
      <path
         d="m 11.5,24 h 1 c 5.44,0 8.15,0 9.83,-1.68 C 24,20.64 24,17.92 24,12.5 V 11.48 C 24,6.08 24,3.36 22.33,1.68 20.65,0 17.93,0 12.5,0 h -1 C 6.06,0 3.35,0 1.67,1.68 0,3.36 0,6.08 0,11.5 v 1.02 c 0,5.4 0,8.12 1.68,9.8 C 3.36,24 6.08,24 11.5,24 Z"
         fill="#0077ff"
         id="path4" />
      <path
         d="M 12.77,17.29 C 7.3,17.29 4.18,13.54 4.05,7.3 h 2.74 c 0.09,4.58 2.11,6.52 3.71,6.92 V 7.3 h 2.58 v 3.95 c 1.58,-0.17 3.24,-1.97 3.8,-3.95 h 2.58 a 7.62,7.62 0 0 1 -3.51,4.98 7.9,7.9 0 0 1 4.11,5.01 h -2.84 a 4.94,4.94 0 0 0 -4.14,-3.57 v 3.57 z"
         fill="#ffffff"
         id="path6" />
    </g>
  </g>
  <defs
     id="defs18">
    <clipPath
       id="new_logo_vk_with_text__a">
      <path
         fill="#ffffff"
         transform="translate(0.001)"
         d="M 0,0 H 136 V 24 H 0 Z"
         id="path12" />
    </clipPath>
    <clipPath
       id="new_logo_vk_with_text__b">
      <path
         fill="#ffffff"
         transform="translate(0,-12)"
         d="M 0,0 H 136 V 48 H 0 Z"
         id="path15" />
    </clipPath>
  </defs>
</svg>
